<?xml version="1.0" encoding="UTF-8" standalone="no"?>
<!-- Created with Inkscape (http://www.inkscape.org/) -->

<svg
   xmlns:dc="http://purl.org/dc/elements/1.1/"
   xmlns:cc="http://creativecommons.org/ns#"
   xmlns:rdf="http://www.w3.org/1999/02/22-rdf-syntax-ns#"
   xmlns:svg="http://www.w3.org/2000/svg"
   xmlns="http://www.w3.org/2000/svg"
   xmlns:xlink="http://www.w3.org/1999/xlink"
   version="1.1"
   width="64"
   height="64"
   id="svg3184">
  <defs
     id="defs3186">
    <pattern
       patternTransform="matrix(0.21816174,0.00139421,-0.00124574,0.19492969,4.5915,64.341481)"
       id="pattern8130"
       xlink:href="#pattern7967" />
    <pattern
       patternTransform="matrix(0.21816174,0.00139421,-0.00124574,0.19492969,4.5915,64.341481)"
       id="pattern7967"
       xlink:href="#pattern7328" />
    <pattern
       patternTransform="matrix(0.21816174,0.00139421,-0.00124574,0.19492969,4.591504,64.341481)"
       id="pattern7328"
       xlink:href="#pattern4145" />
    <pattern
       xlink:href="#pattern4880"
       id="pattern6738"
       patternTransform="translate(193.61476,102.29497)" />
    <pattern
       xlink:href="#pattern4145"
       id="pattern4880"
       patternTransform="translate(193.61476,134.29497)" />
    <pattern
       id="pattern4145"
       patternTransform="translate(193.61476,134.29497)"
       height="500"
       width="500"
       patternUnits="userSpaceOnUse">
      <image
         y="0"
         x="0"
         id="image4142-8"
         xlink:href="file:///home/carlo/Documentos/dev/quarto/src/images/maple.jpg"
         height="500"
         width="500" />
    </pattern>
    <linearGradient
       id="linearGradient5820">
      <stop
         id="stop5822"
         style="stop-color:#552200;stop-opacity:1"
         offset="0" />
      <stop
         id="stop5824"
         style="stop-color:#552200;stop-opacity:0"
         offset="1" />
    </linearGradient>
    <linearGradient
       x1="59.795784"
       y1="32.074417"
       x2="32"
       y2="32.074417"
       id="linearGradient4894"
       xlink:href="#linearGradient5820"
       gradientUnits="userSpaceOnUse" />
    <linearGradient
       x1="47.896904"
       y1="16.046156"
       x2="16.3839"
       y2="16.141346"
       id="linearGradient4980"
       xlink:href="#linearGradient5820"
       gradientUnits="userSpaceOnUse" />
    <linearGradient
       x1="47.896904"
       y1="16.046156"
       x2="16.3839"
       y2="16.141346"
       id="linearGradient6735"
       xlink:href="#linearGradient5820"
       gradientUnits="userSpaceOnUse"
       gradientTransform="translate(0,-32)" />
    <linearGradient
       x1="59.795784"
       y1="32.074417"
       x2="32"
       y2="32.074417"
       id="linearGradient6741"
       xlink:href="#linearGradient5820"
       gradientUnits="userSpaceOnUse" />
    <linearGradient
       x1="47.896904"
       y1="16.046156"
       x2="16.3839"
       y2="16.141346"
       id="linearGradient8123"
       xlink:href="#linearGradient5820"
       gradientUnits="userSpaceOnUse" />
    <linearGradient
       x1="59.795784"
       y1="32.074417"
       x2="32"
       y2="32.074417"
       id="linearGradient8127"
       xlink:href="#linearGradient5820"
       gradientUnits="userSpaceOnUse" />
    <linearGradient
       x1="59.795784"
       y1="32.074417"
       x2="32"
       y2="32.074417"
       id="linearGradient4894-0"
       xlink:href="#linearGradient5820-2"
       gradientUnits="userSpaceOnUse" />
    <linearGradient
       id="linearGradient5820-2">
      <stop
         id="stop5822-3"
         style="stop-color:#552200;stop-opacity:1"
         offset="0" />
      <stop
         id="stop5824-7"
         style="stop-color:#552200;stop-opacity:0"
         offset="1" />
    </linearGradient>
    <pattern
       patternTransform="translate(193.61476,134.29497)"
       id="pattern4880-6"
       xlink:href="#pattern4145-5" />
    <pattern
       patternUnits="userSpaceOnUse"
       width="500"
       height="500"
       patternTransform="translate(193.61476,134.29497)"
       id="pattern4145-5">
      <image
         width="500"
         height="500"
         xlink:href="file:///home/carlo/Documentos/dev/quarto/src/images/maple.jpg"
         id="image4142-8-7"
         x="0"
         y="0" />
    </pattern>
    <linearGradient
       x1="47.896904"
       y1="16.046156"
       x2="16.3839"
       y2="16.141346"
       id="linearGradient4980-5"
       xlink:href="#linearGradient5820-2"
       gradientUnits="userSpaceOnUse" />
    <linearGradient
       id="linearGradient3024">
      <stop
         id="stop3026"
         style="stop-color:#552200;stop-opacity:1"
         offset="0" />
      <stop
         id="stop3028"
         style="stop-color:#552200;stop-opacity:0"
         offset="1" />
    </linearGradient>
    <pattern
       xlink:href="#pattern4145-6"
       id="pattern7328-8"
       patternTransform="matrix(0.21816174,0.00139421,-0.00124574,0.19492969,4.591504,64.341481)" />
    <pattern
       patternUnits="userSpaceOnUse"
       width="500"
       height="500"
       patternTransform="translate(193.61476,134.29497)"
       id="pattern4145-6">
      <image
         width="500"
         height="500"
         xlink:href="file:///home/carlo/Documentos/dev/quarto/src/images/maple.jpg"
         id="image4142-8-9"
         x="0"
         y="0" />
    </pattern>
    <linearGradient
       x1="59.795784"
       y1="32.074417"
       x2="32"
       y2="32.074417"
       id="linearGradient7325"
       xlink:href="#linearGradient5820-3"
       gradientUnits="userSpaceOnUse" />
    <linearGradient
       id="linearGradient5820-3">
      <stop
         id="stop5822-5"
         style="stop-color:#552200;stop-opacity:1"
         offset="0" />
      <stop
         id="stop5824-4"
         style="stop-color:#552200;stop-opacity:0"
         offset="1" />
    </linearGradient>
    <linearGradient
       x1="47.896904"
       y1="16.046156"
       x2="16.3839"
       y2="16.141346"
       id="linearGradient7319"
       xlink:href="#linearGradient5820-3"
       gradientUnits="userSpaceOnUse"
       gradientTransform="translate(0,-32)" />
    <linearGradient
       id="linearGradient3028">
      <stop
         id="stop3030"
         style="stop-color:#552200;stop-opacity:1"
         offset="0" />
      <stop
         id="stop3032"
         style="stop-color:#552200;stop-opacity:0"
         offset="1" />
    </linearGradient>
  </defs>
  <metadata
     id="metadata3189">
    <rdf:RDF>
      <cc:Work
         rdf:about="">
        <dc:format>image/svg+xml</dc:format>
        <dc:type
           rdf:resource="http://purl.org/dc/dcmitype/StillImage" />
        <dc:title></dc:title>
      </cc:Work>
    </rdf:RDF>
  </metadata>
  <g
     id="p11">
    <path
       d="m 32.000001,0.223253 c 10.617054,7.1e-7 27.583916,5.308529 27.583916,15.925583 l 0,31.851164 c 0,10.617055 -16.966863,15.925581 -27.583918,15.925581 -10.617055,0 -27.583919,-5.308528 -27.583919,-15.925583 l 0,-31.851164 c 0,-10.617056 16.966865,-15.92558171 27.583921,-15.925581 z"
       id="path3196"
       style="fill:url(#pattern8130);fill-opacity:1;stroke:#552200;stroke-width:0.50158095;stroke-linecap:round;stroke-linejoin:bevel;stroke-miterlimit:4;stroke-opacity:1" />
    <path
       d="M 31.719959,31.943212 C 42.39622,31.989952 59.35489,27.035538 59.58392,16.148836 l 0,31.851164 c 0,10.617055 -16.96686,15.925581 -27.58392,15.925581 -10.61706,0 -27.583918,-5.308528 -27.583918,-15.925583 l 1e-6,-31.851164 c 0,9.97059 16.789627,15.748346 27.303876,15.794378 z"
       id="path4886"
       style="fill:url(#linearGradient8127);fill-opacity:1;stroke:#552200;stroke-width:0.50158095;stroke-linecap:round;stroke-linejoin:bevel;stroke-miterlimit:4;stroke-opacity:1" />
    <path
       d="m 32.000001,0.223253 c 10.604673,0 27.583916,5.246492 27.583916,15.851165 0,10.604674 -16.979244,15.851163 -27.583918,15.851163 -10.604673,0 -27.5839166,-5.246492 -27.5839161,-15.851165 C 4.4160834,5.469742 21.395327,0.223253 32.000001,0.223253 z"
       id="path4878"
       style="fill:none;stroke:#552200;stroke-width:0.50158095;stroke-linecap:round;stroke-linejoin:bevel;stroke-miterlimit:4;stroke-opacity:1" />
    <path
       d="m 16.40625,16.09375 c 0,6.001528 9.592222,9 15.59375,9 6.001528,0 15.59375,-2.998472 15.59375,-9 0,-6.001528 -9.592222,-9 -15.59375,-9 -6.001528,0 -15.59375,2.998472 -15.59375,9 z"
       id="path4956"
       style="fill:url(#linearGradient8123);fill-opacity:1;stroke:#552200;stroke-width:0.50158095;stroke-linecap:round;stroke-linejoin:bevel;stroke-miterlimit:4;stroke-opacity:1" />
    <path
       d="m 32.000001,0.223253 c 10.617054,4.6e-7 27.583916,5.308529 27.583916,15.925583 l 0,31.851164 c 0,10.617055 -16.966863,15.925581 -27.583918,15.925581 -10.617055,0 -27.583917,-5.308528 -27.583917,-15.925583 l 1e-6,-31.851164 c 0,-10.617055 16.966863,-15.92558146 27.583918,-15.925581 z"
       id="path4882"
       style="fill:#28180b;fill-opacity:0.71764706;stroke:none" />
  </g>
  <g
     id="g2998">
    <path
       d="M 32.000001,0.22325325 59.583917,16.148836 59.583917,48 31.999999,63.925581 4.4160825,47.999998 l 9e-7,-31.851164 z"
       id="path3196-0"
       style="fill:url(#pattern4145-2);fill-opacity:1;stroke:#552200;stroke-width:0.50158095;stroke-linecap:round;stroke-linejoin:bevel;stroke-miterlimit:4;stroke-opacity:1" />
    <path
       d="m 32,32.074419 0,31.463202"
       id="path6753"
       style="fill:none;stroke:#552200;stroke-width:0.52587283;stroke-linecap:butt;stroke-linejoin:miter;stroke-miterlimit:4;stroke-opacity:1;stroke-dasharray:none" />
    <path
       d="M 32.000001,0.22325325 59.583917,16.148836 59.583917,48 31.999999,63.925581 4.4160825,47.999998 l 9e-7,-31.851164 z"
       id="path4886-4"
       style="fill:url(#linearGradient4894-0);fill-opacity:1;stroke:#552200;stroke-width:0.50158095;stroke-linecap:round;stroke-linejoin:bevel;stroke-miterlimit:4;stroke-opacity:1" />
    <path
       d="M 32.000001,0.223253 59.583917,16.074418 31.999999,31.925581 4.4160829,16.074416 z"
       id="path4878-6"
       style="fill:url(#pattern4880-6);fill-opacity:1;stroke:#552200;stroke-width:0.50158095;stroke-linecap:round;stroke-linejoin:bevel;stroke-miterlimit:4;stroke-opacity:1" />
    <path
       d="m 16.40625,16.09375 c 0,6.001528 9.592222,9 15.59375,9 6.001528,0 15.59375,-2.998472 15.59375,-9 0,-6.001528 -9.592222,-9 -15.59375,-9 -6.001528,0 -15.59375,2.998472 -15.59375,9 z"
       id="path4956-2"
       style="fill:url(#linearGradient4980-5);fill-opacity:1;stroke:#552200;stroke-width:0.50158095;stroke-linecap:round;stroke-linejoin:bevel;stroke-miterlimit:4;stroke-opacity:1" />
    <path
       d="M 32.000001,0.223253 59.583917,16.148836 59.583917,48 31.999999,63.925581 4.4160825,47.999998 l 9e-7,-31.851164 z"
       id="path4882-7"
       style="fill:#28180b;fill-opacity:0.71764706;stroke:none" />
  </g>
  <g
     id="g3002">
    <path
       d="m 32.000001,-31.776747 27.583916,15.925583 0,63.851164 -27.583918,15.925581 -27.5839165,-15.925583 9e-7,-63.851164 z"
       id="path3196-4"
       style="fill:url(#pattern7328-8);fill-opacity:1;stroke:#552200;stroke-width:0.50158095;stroke-linecap:round;stroke-linejoin:bevel;stroke-miterlimit:4;stroke-opacity:1" />
    <path
       d="M 32.000001,0.223253 59.58392,-15.851164 59.58392,48 31.999999,63.925581 4.416082,47.999998 l 1e-6,-63.851164 z"
       id="path4886-2"
       style="fill:url(#linearGradient7325);fill-opacity:1;stroke:#552200;stroke-width:0.50158095;stroke-linecap:round;stroke-linejoin:bevel;stroke-miterlimit:4;stroke-opacity:1" />
    <path
       d="M 32.000001,-31.776747 59.583917,-15.925582 31.999999,-0.074419 4.4160829,-15.925584 z"
       id="path4878-5"
       style="fill:none;stroke:#552200;stroke-width:0.50158095;stroke-linecap:round;stroke-linejoin:bevel;stroke-miterlimit:4;stroke-opacity:1" />
    <path
       d="m 16.40625,-15.90625 c 0,6.001528 9.592222,9 15.59375,9 6.001528,0 15.59375,-2.998472 15.59375,-9 0,-6.001528 -9.592222,-9 -15.59375,-9 -6.001528,0 -15.59375,2.998472 -15.59375,9 z"
       id="path4956-3"
       style="fill:url(#linearGradient7319);fill-opacity:1;stroke:#552200;stroke-width:0.50158095;stroke-linecap:round;stroke-linejoin:bevel;stroke-miterlimit:4;stroke-opacity:1" />
    <path
       d="m 32.000001,-31.776747 27.583916,15.925583 0,63.851164 -27.583918,15.925581 -27.583917,-15.925583 1e-6,-63.851164 z"
       id="path4882-1"
       style="fill:#28180b;fill-opacity:0.71764706;stroke:none" />
    <path
       d="m 32,0.074419 0,63.463202"
       id="path6753-7"
       style="fill:none;stroke:#552200;stroke-width:0.52587283;stroke-linecap:butt;stroke-linejoin:miter;stroke-miterlimit:4;stroke-opacity:1;stroke-dasharray:none" />
  </g>
</svg>
